# AST/ASF file generated using VICON BodyLanguage
# -----------------------------------------------
:version 1.10
:name VICON
:units
  mass 1.0
  length 0.45
  angle deg
:documentation
   .ast/.asf automatically generated from VICON data using
   VICON BodyBuilder and BodyLanguage model FoxedUp or BRILLIANT.MOD
:root
   order TX TY TZ RX RY RZ
   axis XYZ
   position 0 0 0  
   orientation 0 0 0 
:bonedata
  begin
     id 1 
     name lhipjoint
     direction 0.528046 -0.759594 0.379717 
     length 2.39752 
     axis 0 0 0  XYZ
  end
  begin
     id 2 
     name lfemur
     direction 0.34202 -0.939693 0  
     length 7.31175  
     axis 0 0 20  XYZ
    dof rx ry rz
    limits (-160.0 20.0)
           (-70.0 70.0)
           (-60.0 70.0)
  end
  begin
     id 3 
     name ltibia
     direction 0.34202 -0.939693 0   
     length 7.52482   
     axis 0 0 20   XYZ
    dof rx
    limits (-10.0 170.0)
  end
  begin
     id 4 
     name lfoot
     direction 0.0675379 -0.185559 0.980309   
     length 2.00961   
     axis -90 7.62852e-016 20   XYZ
    dof rx rz
    limits (-45.0 90.0)
           (-70.0 20.0)
  end
  begin
     id 5 
     name ltoes
     direction 1.5352e-011 -4.22286e-011 1   
     length 1.01383   
     axis -90 7.62852e-016 20   XYZ
    dof rx
    limits (-90.0 20.0)
  end
  begin
     id 6 
     name rhipjoint
     direction -0.510274 -0.769251 0.384544   
     length 2.36742  
     axis 0 0 0  XYZ 
  end
  begin
     id 7 
     name rfemur
     direction -0.34202 -0.939693 0   
     length 7.45325   
     axis 0 0 -20   XYZ
    dof rx ry rz
    limits (-160.0 20.0)
           (-70.0 70.0)
           (-70.0 60.0)
  end
  begin
     id 8 
     name rtibia
     direction -0.34202 -0.939693 0   
     length 7.49587   
     axis 0 0 -20   XYZ
    dof rx
    limits (-10.0 170.0)
 end
 begin
     id 9 
     name rfoot
     direction -0.106475 -0.292536 0.950308   
     length 2.20898  
     axis -90 -7.62852e-016 -20   XYZ
    dof rx rz
    limits (-45.0 90.0)
           (-20.0 70.0)
  end
  begin
     id 10 
     name rtoes
     direction -1.53597e-011 -4.22023e-011 1   
     length 1.10065   
     axis -90 -7.62852e-016 -20   XYZ
    dof rx
    limits (-90.0 20.0)
  end
  begin
     id 11 
     name lowerback
     direction 0.0260024 0.998026 -0.0571652   
     length 2.11214   
     axis 0 0 0   XYZ
    dof rx ry rz
    limits (-20.0 45.0)
           (-30.0 30.0)
           (-30.0 30.0)
  end
  begin
     id 12 
     name upperback
     direction 0.0216202 0.999542 -0.0211766   
     length 2.11689   
     axis 0 0 0   XYZ
    dof rx ry rz
    limits (-20.0 45.0)
           (-30.0 30.0)
           (-30.0 30.0)
  end
  begin
     id 13 
     name thorax
     direction 0.00883312 0.999944 0.00589057   
     length 2.11821   
     axis 0 0 0   XYZ
    dof rx ry rz
    limits (-20.0 45.0)
           (-30.0 30.0)
           (-30.0 30.0)
  end
  begin
     id 14 
     name lowerneck
     direction -0.059386 0.994433 0.0870401   
     length 1.81176   
     axis 0 0 0   XYZ
    dof rx ry rz
    limits (-20.0 45.0)
           (-30.0 30.0)
           (-30.0 30.0)
  end
  begin
     id 15 
     name upperneck
     direction 0.0506457 0.97328 -0.223967   
     length 1.82382   
     axis 0 0 0   XYZ
    dof rx ry rz
    limits (-20.0 45.0)
           (-30.0 30.0)
           (-30.0 30.0)
  end
  begin
     id 16
     name head
     direction 0.0205902 0.996147 -0.0852487  
     length 1.84805  
     axis 0 0 0   XYZ
    dof rx ry rz
    limits (-20.0 45.0)
           (-30.0 30.0)
           (-30.0 30.0)
  end
  begin
     id 17 
     name lclavicle
     direction 0.949493 0.303881 -0.0782325  
     length 3.60584  
     axis 0 0 0   XYZ
    dof ry rz
    limits (-20.0 10.0)
           (0.0 20.0)
  end
  begin
     id 18 
     name lhumerus
     direction 1 -4.48965e-011 1.48782e-027   
     length 4.95681   
     axis 180 -30 -90   XYZ
    dof rx ry rz
    limits (-60.0 90.0)
           (-90.0 90.0)
           (-90.0 90.0)
  end
  begin
     id 19
     name lradius
     direction 1 -4.48952e-011 2.06528e-027   
     length 3.40915   
     axis 180 -30 -90   XYZ
    dof rx
    limits (-10.0 170.0)
  end
  begin
     id 20
     name lwrist
     direction 1 -4.48964e-011 1.28021e-027   
     length 1.70457   
     axis -1.61767e-015 90 90   XYZ
    dof ry
    limits (-180.0 0.0)
 end
  begin
     id 21 
     name lhand
     direction 1 -4.49094e-011 2.54887e-027   
     length 0.616403   
     axis -1.63363e-015 90 90   XYZ
    dof rx rz
    limits (-90.0 90.0)
           (-45.0 45.0)
  end
  begin
     id 22 
     name lfingers
     direction 1 -4.49002e-011 5.11407e-027   
     length 0.49696   
     axis -3.26723e-015 90 90   XYZ
    dof rx
    limits (0.0 90.0)
  end
  begin
     id 23
     name lthumb
     direction 0.707107 -6.34998e-011 0.707107   
     length 0.713539   
     axis -90 45 -2.25915e-014   XYZ
    dof rx rz
    limits (-45.0 45.0)
           (-45.0 45.0)
  end
  begin
     id 24 
     name rclavicle
     direction -0.937751 0.334612 -0.0930482   
     length 3.46287  
     axis 0 0 0   XYZ 
    dof ry rz
    limits (-10.0 20.0)
           (-20.0 0.0)
  end
  begin
     id 25 
     name rhumerus
     direction -1 -4.48962e-011 3.59972e-027  
     length 5.352   
     axis 180 30 90   XYZ
    dof rx ry rz
    limits (-90.0 60.0)
           (-90.0 90.0)
           (-90.0 90.0)
  end
  begin
     id 26 
     name rradius
     direction -1 -4.48987e-011 -3.76925e-027   
     length 3.43721   
     axis 180 30 90   XYZ
    dof rx
    limits (-10.0 170.0)
  end
  begin
     id 27 
     name rwrist
     direction -1 -4.48943e-011 1.28112e-027   
     length 1.7186   
     axis -1.61767e-015 -90 -90   XYZ
    dof ry
    limits (-180.0 0.0)
  end
  begin
     id 28
     name rhand
     direction -1 -4.49027e-011 2.55483e-027   
     length 0.72009   
     axis -1.63363e-015 -90 -90   XYZ
    dof rx rz
    limits (-90.0 90.0)
           (-45.0 45.0)
  end
  begin
     id 29
     name rfingers
     direction -1 -4.48827e-011 5.14506e-027   
     length 0.580555   
     axis -3.26723e-015 -90 -90   XYZ
    dof rx
    limits (0.0 90.0)
  end
  begin
     id 30
     name rthumb
     direction -0.707107 -6.34936e-011 0.707107   
     length 0.833564   
     axis -90 -45 2.25915e-014   XYZ
    dof rx rz
    limits (-45.0 45.0)
           (-45.0 45.0)
  end
:hierarchy
  begin
    root lhipjoint rhipjoint lowerback
    lhipjoint lfemur
    lfemur ltibia
    ltibia lfoot
    lfoot ltoes
    rhipjoint rfemur
    rfemur rtibia
    rtibia rfoot
    rfoot rtoes
    lowerback upperback
    upperback thorax
    thorax lowerneck lclavicle rclavicle
    lowerneck upperneck
    upperneck head
    lclavicle lhumerus
    lhumerus lradius
    lradius lwrist
    lwrist lhand lthumb
    lhand lfingers
    rclavicle rhumerus
    rhumerus rradius
    rradius rwrist
    rwrist rhand rthumb
    rhand rfingers
  end

#!OML:ASF H:\Terrain\Patient Classification 1\Terrain2\Thursday\justin.ASF
:FULLY-SPECIFIED
:DEGREES
730
root 8.51178 17.7624 19.9332 -1.39502 0.335521 -3.78769
lowerback 1.00482 0.0419197 2.11003
upperback 0.858716 0.0660352 2.49517
thorax 0.315834 0.0360613 1.37281
lowerneck -15.0013 -2.18182 -8.78246
upperneck 33.3364 -1.72648 3.4631
head 13.991 -1.39216 2.65256
rclavicle 9.21864e-015 1.11319e-014
rhumerus -34.2481 -10.5237 -79.5063
rradius 26.8128
rwrist -8.22055
rhand -19.6244 11.2146
rfingers 7.12502
rthumb 6.70237 -18.6593
lclavicle 9.21864e-015 1.11319e-014
lhumerus -32.5206 5.98258 83.9397
lradius 29.5258
lwrist 3.89281
lhand -18.9018 22.5877
lfingers 7.12502
lthumb 7.39998 52.4383
rfemur -8.75185 -2.62524 27.2282
rtibia 30.365
rfoot -18.2415 3.46197
rtoes 19.5816
lfemur -6.23829 0.805911 -16.008
ltibia 28.6091
lfoot -17.9903 -10.743
ltoes 0.00321608
731
root 8.49372 17.76 19.9693 -1.48071 0.449185 -3.97162
lowerback 1.25391 0.0144935 2.25949
upperback 0.807188 0.0424356 2.56794
thorax 0.123755 0.0236749 1.36383
lowerneck -15.0842 -2.15982 -8.83498
upperneck 33.3521 -1.68115 3.50012
head 14.0139 -1.37384 2.68467
rclavicle 3.70236e-015 3.10104e-014
rhumerus -34.289 -10.7816 -79.2144
rradius 26.3113
rwrist -7.88211
rhand -19.4865 11.0976
rfingers 7.12502
rthumb 6.83557 -18.7721
lclavicle 3.70236e-015 3.10104e-014
lhumerus -32.8391 6.00953 84.1072
lradius 29.1209
lwrist 3.60968
lhand -18.5573 22.6546
lfingers 7.12502
lthumb 7.73244 52.4932
rfemur -8.4577 -2.7734 27.4938
rtibia 30.1907
rfoot -18.3245 3.42143
rtoes 19.3148
lfemur -6.12849 0.705223 -15.7304
ltibia 28.9376
lfoot -18.5147 -10.5702
ltoes -0.711368
732
root 8.48089 17.7588 20.011 -1.56683 0.606368 -4.12381
lowerback 1.42287 0.0461232 2.42676
upperback 0.773302 0.094938 2.62027
thorax -0.00578712 0.0496041 1.32312
lowerneck -15.1366 -2.28999 -9.07839
upperneck 33.3762 -1.87084 3.72428
head 14.0582 -1.4563 2.78853
rclavicle -4.36394e-015 -1.78906e-014
rhumerus -34.3989 -11.0933 -78.8768
rradius 25.9906
rwrist -7.8592
rhand -19.3739 10.9811
rfingers 7.12502
rthumb 6.94423 -18.885
lclavicle -4.36394e-015 -1.78906e-014
lhumerus -33.2298 6.20252 84.2604
lradius 28.9539
lwrist 2.88882
lhand -18.3254 22.4056
lfingers 7.12502
lthumb 7.95624 52.2359
rfemur -8.11219 -3.20495 27.6522
rtibia 29.9851
rfoot -18.5342 3.62642
rtoes 18.3217
lfemur -5.98398 0.510877 -15.5212
ltibia 29.3272
lfoot -19.0238 -10.3822
ltoes -1.8532
733
root 8.46546 17.753 20.0465 -1.54972 0.723842 -4.5812
lowerback 1.47057 0.0163774 2.83356
upperback 0.759114 0.0633967 2.76676
thorax -0.0464 0.0343819 1.24637
lowerneck -15.2672 -2.37111 -9.30839
upperneck 33.404 -1.97481 3.92083
head 14.1148 -1.50383 2.89291
rclavicle 3.02836e-015 1.51076e-014
rhumerus -34.4122 -11.3587 -78.6521
rradius 25.8088
rwrist -7.67465
rhand -19.505 10.8538
rfingers 7.12502
rthumb 6.8177 -19.0165
lclavicle 3.02836e-015 1.51076e-014
lhumerus -33.4166 6.5256 84.2971
lradius 28.6386
lwrist 1.88063
lhand -17.7569 22.167
lfingers 7.12502
lthumb 8.50498 51.9757
rfemur -7.86072 -3.26516 28.1818
rtibia 29.7445
rfoot -18.6572 3.76386
rtoes 18.4278
lfemur -6.03007 0.191783 -14.9657
ltibia 29.7967
lfoot -18.724 -10.4807
ltoes 0.0660606
734
root 8.44753 17.7437 20.0718 -1.5359 0.885132 -4.83905
lowerback 1.51406 -0.0416086 3.02289
upperback 0.823277 -0.0117369 2.85027
thorax -0.00479191 -0.00219399 1.22743
lowerneck -15.3763 -2.36818 -9.43606
upperneck 33.2647 -1.96959 4.07165
head 14.0794 -1.49305 2.97441
rclavicle 4.56584e-015 2.5842e-014
rhumerus -34.2827 -11.7672 -78.4261
rradius 25.618
rwrist -7.11442
rhand -19.7468 10.535
rfingers 7.12502
rthumb 6.58429 -19.3426
lclavicle 4.56584e-015 2.5842e-014
lhumerus -33.3072 6.79784 84.3528
lradius 27.9542
lwrist 1.22766
lhand -17.479 21.4274
lfingers 7.12502
lthumb 8.77316 51.225
rfemur -7.6411 -3.16306 28.5326
rtibia 29.4652
rfoot -18.5225 3.74979
rtoes 19.4038
lfemur -6.27828 -0.583098 -14.6555
ltibia 30.3796
lfoot -17.6779 -10.8192
ltoes 6.26168
735
root 8.42859 17.7383 20.0994 -1.63624 1.11639 -4.91582
lowerback 1.61362 -0.0967788 3.01816
upperback 0.952053 -0.0855007 2.902
thorax 0.0715575 -0.0380008 1.28445
lowerneck -15.362 -2.37741 -9.47867
upperneck 32.9399 -1.97268 4.08766
head 13.9327 -1.4892 2.9793
rclavicle -1.36043e-015 -1.23246e-014
rhumerus -34.0362 -12.1195 -78.206
rradius 25.222
rwrist -6.61479
rhand -19.678 10.2604
rfingers 7.12502
rthumb 6.65067 -19.6151
lclavicle -1.36043e-015 -1.23246e-014
lhumerus -33.1455 6.64319 84.6604
lradius 27.2306
lwrist 1.36491
lhand -17.5433 21.1045
lfingers 7.12502
lthumb 8.71105 50.9047
rfemur -7.27813 -3.27923 28.6723
rtibia 29.1991
rfoot -18.4543 3.7343
rtoes 19.662
lfemur -6.52975 -1.13667 -14.5424
ltibia 31.0177
lfoot -17.2129 -11.0454
ltoes 10.0606
